<svg width="1010.5511" height="465.88977" xmlns="http://www.w3.org/2000/svg" xmlns:svg="http://www.w3.org/2000/svg" xmlns:xlink="http://www.w3.org/1999/xlink">
 <metadata id="metadata108">image/svg+xml</metadata>
 <g>
  <title>Layer 1</title>
  <g id="Layer1000">
   <path id="path5" d="m938.13531,120.68004l0,49.7062l-257.5799,0c-26.047,-67.9378 -95.1668,-116.4966 -176.424,-116.4966c-81.259,0 -150.4217,48.5588 -176.4659,116.4966l-254.2053,0l0,-49.7062c0,-10.4501 9.7889,-22.2318 20.5555,-24.7673l378.9386,-89.2011c8.3661,-1.9828 20.364,-3.0845 32.8379,-3.0845c12.5324,0 24.4728,1.1017 32.849,3.0845l378.9394,89.2011c10.7703,2.5355 20.5547,14.3172 20.5547,24.7673z" fill-rule="evenodd" fill="#e30016"/>
   <path id="path7" d="m940.53581,342.65764l0,-49.7071l-257.58,0c-26.0469,67.9378 -95.1731,116.4948 -176.4266,116.4948c-81.2572,0 -150.4208,-48.557 -176.4632,-116.4948l-254.2072,0l0,49.7071c0,10.451 9.7908,22.23 20.5574,24.7664l378.9367,89.2029c8.3644,1.9828 20.3659,3.0827 32.8417,3.0827c12.5305,0 24.4709,-1.0999 32.847,-3.0827l378.9395,-89.2029c10.7648,-2.5364 20.5547,-14.3154 20.5547,-24.7664z" fill-rule="evenodd" fill="#e2181a"/>
   <path id="path9" d="m1011.86191,167.16854l0,126.5773l-1011.1449,0l0,-126.5773l1011.1449,0z" fill-rule="evenodd" fill="#1b1918"/>
   <path id="path11" d="m505.79591,443.19804c-115.8518,0 -210.1055,-94.2528 -210.1055,-210.1073c0,-115.8527 94.2537,-210.1065 210.1055,-210.1065c115.8527,0 210.1083,94.2538 210.1083,210.1065c0,115.8545 -94.2556,210.1073 -210.1083,210.1073z" fill-rule="evenodd" fill="#009035"/>
   <path id="path13" d="m698.36471,233.09074c0,106.3528 -86.2123,192.5679 -192.5688,192.5679c-106.3502,0 -192.567,-86.2151 -192.567,-192.5679c0,-106.3511 86.2168,-192.568 192.567,-192.568c106.3565,0 192.5688,86.2169 192.5688,192.568z" fill-rule="evenodd" fill="#009035"/>
   <path id="path15" d="m938.13921,147.19124l-176.0393,0l0,8.0733l176.0393,0l0,-8.0733z" fill-rule="evenodd" fill="#1b1918"/>
   <path id="path17" d="m940.52351,305.38074l-177.811,0l0,8.0752l177.811,0l0,-8.0752z" fill-rule="evenodd" fill="#1b1918"/>
   <path id="path19" d="m249.52161,147.19124l-176.0397,0l0,8.0733l176.0397,0l0,-8.0733z" fill-rule="evenodd" fill="#1b1918"/>
   <path id="path21" d="m251.92091,305.41704l-176.0397,0l0,8.0752l176.0397,0l0,-8.0752z" fill-rule="evenodd" fill="#1b1918"/>
   <g id="Layer1001">
    <g id="Layer1002">
     <path id="path25" d="m113.52071,222.46924c-45.1035,1.2669 -16.6639,-32.4184 -11.9124,-37.458c0.017,4.4879 -10.1422,31.4727 16.1074,32.1323l-4.195,5.3257z" fill-rule="evenodd" fill="#ffffff"/>
     <path id="path27" d="m115.61581,219.80934c-34.9508,0.2663 -16.7213,-29.1991 -14.0075,-34.7981" fill-rule="evenodd" fill="#ffffff"/>
    </g>
    <g id="Layer1003">
     <path id="path30" d="m168.91311,283.22264c0.3533,-0.513 -27.6785,-11.0624 -32.04,-14.5151c-11.1993,-8.8654 -8.8857,-22.8571 30.212,-26.1365c26.6418,-2.2348 41.9246,-0.7288 64.4596,0.2838c-7.9506,-6.1797 -5.2224,-6.507 -20.5893,-8.9862c-65.7475,-10.607 -128.4857,19.8563 -100.0781,39.7618c6.2013,4.3451 43.8956,15.5042 58.0358,9.5922z" fill-rule="evenodd" fill="#ffffff"/>
    </g>
    <path id="path32" d="m168.91271,283.22234c-0.1709,-0.0169 -0.3422,-0.0338 -0.5116,-0.0508c-79.5811,-7.9911 -55.4765,-43.8197 4.3236,-45.9425c24.2171,-0.8598 43.7337,0.0476 58.82,5.6258" fill="none"/>
    <path id="path34" d="m130.75261,217.34754l61.9524,5.4179l-60.3731,7.4001l-1.5793,-12.818z" fill-rule="evenodd" fill="#ffffff"/>
    <path id="path36" d="m140.44021,222.66684l8.1634,14.6601l-22.9887,15.7064l-8.1633,-14.6601l22.9886,-15.7064z" fill-rule="evenodd" fill="#ffffff"/>
    <path id="path38" d="m118.81241,217.37094l-27.0603,-0.4836l27.144,22.638l27.0602,0.4836l-27.1439,-22.638z" fill-rule="evenodd" fill="#ffffff"/>
    <path id="path40" d="m118.58001,238.38154l-13.8748,1.5643l-0.5681,4.8047l14.936,-1.6839l-0.4931,-4.6851z" fill-rule="evenodd" fill="#ffffff"/>
    <path id="path42" d="m119.73451,239.99084l-19.7811,8.2944l-0.5743,4.8353l21.6297,-9.07l-1.2743,-4.0597z" fill-rule="evenodd" fill="#ffffff"/>
    <g id="Layer1004">
     <path id="path45" d="m124.02151,216.22924l6.1724,-1.0562l5.4949,-3.0029l4.222,-4.6245l2.4918,-5.7446l0.4915,-6.2425l-1.562,-6.0644l-3.4467,-5.228l-4.9572,-3.8261l-5.9311,-2.0086l-6.2619,0.026l-5.9141,2.0574l-4.9257,3.8664l-3.4034,5.2561l-1.5123,6.0771l0.5426,6.2381l2.539,5.724l4.2604,4.5895l5.5193,2.9581l6.1805,1.0051z" fill-rule="evenodd" fill-opacity="0" fill="#aa1113"/>
     <g id="Layer1005">
      <g id="Layer1006">
       <path id="path49" d="m112.54551,204.35064l4.0312,4.343l5.2232,2.799l5.8486,0.9513l5.8409,-0.9995l5.1998,-2.8416l3.9954,-4.3762l2.358,-5.4364l0.4651,-5.9072l-1.4783,-5.7385l-3.2614,-4.9474l-4.6912,-3.6204l-5.6125,-1.9009l-5.9257,0.0243l-5.5965,1.947l-4.6614,3.6589l-3.2204,4.974l-1.4311,5.7506l0.5136,5.9033l2.4027,5.4167z" fill-rule="evenodd" fill="#ffffff"/>
       <path id="path51" d="m127.65271,213.46544l6.1723,-1.0562l5.4948,-3.003l4.2224,-4.6244l2.4916,-5.7449l0.4915,-6.2425l-1.5621,-6.0641l-3.4466,-5.2281l-4.9572,-3.826l-5.9311,-2.0087l-6.2619,0.0258l-5.9141,2.0574l-4.9258,3.8666l-3.4034,5.2561l-1.5122,6.077l0.5425,6.2383l2.5391,5.7239l4.2604,4.5896l5.5193,2.9579l6.1805,1.0053zm5.501,-2.9857l0,0l-5.5093,0.9426l-5.5169,-0.8971l-4.9265,-2.6401l-3.8029,-4.0966l-2.2662,-5.1095l-0.4843,-5.5682l1.3496,-5.4242l3.0379,-4.6918l4.3969,-3.4514l5.279,-1.8365l5.5893,-0.0228l5.294,1.7929l4.425,3.415l3.0764,4.6667l1.3944,5.4128l-0.4387,5.572l-2.2241,5.1279l-3.7688,4.1281l-4.9048,2.6802z" fill-rule="evenodd" fill="#000000"/>
      </g>
      <g id="Layer1007">
       <path id="path54" d="m117.43021,194.55954c0,5.5993 4.5391,10.1387 10.1382,10.1387c5.5991,0 10.1381,-4.5394 10.1381,-10.1387c0,-5.599 -4.539,-10.138 -10.1381,-10.138c-5.5991,0 -10.1382,4.539 -10.1382,10.138z" fill-rule="evenodd" fill="#e2181a"/>
      </g>
     </g>
    </g>
   </g>
   <path id="path56" d="m275.53221,291.34644c-3.1733,0 -6.5359,-0.8244 -10.0892,-2.4746c-4.1884,-2.0303 -6.2822,-4.4413 -6.2822,-7.2338c0,-1.1415 0.6343,-4.5684 1.9038,-10.2791c0.3808,-2.2846 0.9515,-5.7743 1.7131,-10.4699c0.1271,-0.6344 1.0151,-4.2513 2.6653,-10.8507c1.1416,-4.6948 1.7131,-8.3117 1.7131,-10.8499c0,-4.3148 -1.5867,-12.6273 -4.7592,-24.9375c-2.411,-9.264 -3.9341,-15.2283 -4.5684,-17.8937c-1.6502,-7.4873 -2.6018,-13.5152 -2.8554,-18.0844c-0.1272,-1.2687 -0.3807,-3.6797 -0.7615,-7.2338c-0.5079,-3.0453 -0.7615,-5.4564 -0.7615,-7.233c0,-0.8887 0.4757,-2.3482 1.428,-4.3784c0.9516,-2.031 1.7445,-3.0461 2.3789,-3.0461c0.1271,0 0.3807,0.0635 0.7615,0.1907c0.8887,-0.3807 1.5866,-0.5715 2.0938,-0.5715c0.2544,0 0.7301,0.2858 1.4281,0.8565c0.6979,0.5716 1.3644,0.8573 1.9988,0.8573c3.2997,0 5.7107,1.9667 7.2338,5.9007l5.3299,13.5153c0.2536,0.6351 1.6495,6.0287 4.1877,16.1806c0.7615,3.0461 1.9674,7.6782 3.6169,13.8968c0.5079,0 1.6816,-1.428 3.5219,-4.2834c1.8402,-2.8554 6.6944,-10.7549 14.5625,-23.6994c8.2489,-13.8332 12.5002,-21.1934 12.7538,-22.0821l-0.5708,0.5715c6.5994,-10.1527 10.7235,-15.2291 12.373,-15.2291c2.1574,0 4.7591,1.1737 7.8053,3.5219c3.0453,2.3474 4.5684,4.5999 4.5684,6.7573c0,3.6804 -5.4571,14.3404 -16.3706,31.9804c-13.8332,22.3357 -20.8763,33.7572 -21.1306,34.2651c-2.0302,3.6805 -5.0128,9.264 -8.9468,16.7514c-2.0303,4.0612 -4.3777,12.0565 -7.0431,23.9852c-2.1574,10.1527 -3.6169,18.5288 -4.3784,25.1274c-0.2536,2.5382 -0.8879,4.252 -1.9038,5.14c-1.0151,0.8887 -2.2203,1.3323 -3.6161,1.3323zm120.1166,-3.8069c0,2.5382 -1.5867,3.8069 -4.7592,3.8069c-0.3808,0 -0.9516,-0.1264 -1.7131,-0.38c-0.7615,-0.2544 -1.3323,-0.3808 -1.7131,-0.3808c-0.6343,0 -1.4594,0.2214 -2.4745,0.6658c-1.0152,0.4443 -1.8403,0.6665 -2.4746,0.6665c-2.919,0 -4.95,-2.0624 -6.0915,-6.1551c-1.1423,-4.0926 -2.221,-13.0395 -3.2362,-26.8091c-0.1271,-1.523 -0.3179,-2.7282 -0.5715,-3.5847c-0.3807,-1.6502 -1.0787,-2.4746 -2.0938,-2.4746l-3.8069,0c-14.0868,-0.1272 -21.7327,0.6344 -22.9386,2.2838c-1.2059,1.6503 -2.7604,5.2036 -4.6642,10.66c-2.411,6.5994 -3.8705,10.407 -4.3777,11.4221c-1.3959,2.919 -2.4117,5.52 -3.0461,7.8046c-1.0151,3.2997 -1.7131,5.4571 -2.0938,6.4722c-0.8887,2.5382 -1.9674,4.4735 -3.2361,5.8058c-1.2695,1.333 -2.9826,1.9988 -5.14,1.9988c-7.3602,0 -11.0407,-1.9038 -11.0407,-5.7107c0,-3.9341 4.9492,-19.2896 14.8484,-46.0673c9.6447,-25.889 15.9898,-41.5617 19.0359,-47.0188c2.2839,-5.8371 5.33,-13.6424 9.1369,-23.4144c6.853,-17.5129 11.485,-26.269 13.8968,-26.269c4.6948,0 9.7076,0.5708 15.0383,1.7131c7.6138,1.6494 11.4214,3.9976 11.4214,7.043c0,0.6343 0,1.6502 0,3.0461c0,1.3959 0,2.411 0,3.0454c0,5.8379 0.1586,14.5311 0.4758,26.0797c0.3172,11.5479 0.4758,20.2411 0.4758,26.079c0,1.5231 -0.095,3.8705 -0.2858,7.043c-0.19,3.1733 -0.285,5.5207 -0.285,7.0438c0,3.1725 0.19,7.8046 0.5708,13.896c0.3807,5.4572 0.5715,17.6401 0.5715,36.5489c0,0.508 0.095,1.3331 0.285,2.4746c0.1908,1.1423 0.2858,2.031 0.2858,2.6654zm-21.7014,-61.1056c0,-3.1725 -0.1586,-7.8046 -0.4757,-13.896c-0.3172,-6.0915 -0.4758,-10.6599 -0.4758,-13.7061c0,-3.8069 -0.2536,-7.2337 -0.7615,-10.2791c-0.1265,-0.6351 -0.4444,-1.2695 -0.9516,-1.9038c0,0 0,0.0636 0,0.19c0,0.3807 -0.8251,2.4753 -2.4746,6.2822c-11.295,25.2547 -16.9421,38.4527 -16.9421,39.595c0,0.7616 1.7766,1.1423 5.3299,1.1423c0.6344,0 1.5231,0 2.6654,0c1.2687,0.1265 2.2202,0.19 2.8553,0.19c4.0605,0 6.7259,-0.3171 7.9946,-0.9515c2.1574,-1.0159 3.2361,-3.2361 3.2361,-6.663zm91.1823,-2.2838c0,0.2536 0.5715,1.6494 1.713,4.1876c2.5382,5.7107 6.4094,13.7696 11.6122,24.1759c8.3761,16.8786 12.5638,26.079 12.5638,27.6021c0,1.0151 -1.6495,3.0139 -4.9492,5.9965c-3.2997,2.9818 -5.4572,4.4734 -6.4723,4.4734c-1.0151,0 -3.1089,-1.8402 -6.2822,-5.5207c-5.4564,-6.3451 -10.2792,-13.5153 -14.4668,-21.5106c-5.0764,-9.6448 -9.074,-16.6885 -11.993,-21.1298c-1.9038,-2.9189 -3.2997,-4.3784 -4.1876,-4.3784c-0.3808,0 -0.6344,1.1423 -0.7616,3.4261c-0.2536,3.4269 -0.7615,7.4874 -1.523,12.183c-4.442,26.1433 -8.5661,39.2142 -12.373,39.2142c-2.7925,0 -5.9015,-0.7615 -9.3276,-2.2838c-4.0612,-1.6502 -6.0922,-3.6805 -6.0922,-6.0915c0,0.888 0.2543,-0.6987 0.7615,-4.7913c0.3808,-2.0303 0.8887,-5.0128 1.523,-8.9469c1.2695,-8.3753 3.4269,-21.0348 6.4723,-37.9448c1.1423,-5.9643 2.7289,-14.9119 4.7592,-26.8727c0.6343,-4.6956 1.6495,-11.8022 3.0453,-21.3519c3.6805,-21.8592 6.663,-32.7735 8.9469,-32.7735c2.4117,0 5.3307,0.3172 8.7568,0.9516c4.3149,0.8887 6.853,1.9674 7.6146,3.2361c0.2536,0.3808 0.3807,1.2373 0.3807,2.5068c0,4.0612 -1.2059,13.4202 -3.6169,28.0464c-0.2536,1.5544 -0.6343,3.839 -1.1423,6.8844c-1.9038,9.8034 -2.8553,15.7999 -2.8553,17.9573c0,0.5079 0.1272,0.8887 0.3808,1.1423c1.1422,0 9.6133,-10.5971 25.4132,-31.7905c15.7998,-21.1934 25.1589,-31.7897 28.0778,-31.7897c1.1423,0 3.4261,1.4594 6.853,4.3784c3.4261,2.9189 5.14,4.9492 5.14,6.0915c0,1.7766 -3.2362,6.6622 -9.7084,14.6575c-4.1884,4.9492 -8.3761,9.8984 -12.5637,14.8484c-4.6956,5.9643 -9.4548,11.9286 -14.2776,17.8936c-7.6138,9.8984 -11.4214,15.6727 -11.4214,17.323zm127.3504,-64.9133c-0.6344,3.5533 -1.6495,8.9469 -3.0454,16.1806c-0.7615,3.4269 -2.4746,14.5948 -5.14,33.5036c-1.2687,9.5176 -2.5381,19.036 -3.8069,28.5536c-1.7766,11.1678 -3.9026,20.3368 -6.3772,27.507c-2.4746,7.1702 -5.4257,12.5959 -8.8518,16.2764c-7.8682,8.2489 -16.1807,12.373 -24.9375,12.373c-3.0454,0 -8.0581,-1.7767 -15.0383,-5.33c-12.6902,-6.4722 -19.036,-16.815 -19.036,-31.0289c0,-4.4413 0.7615,-11.1679 2.2846,-20.1775c1.2687,-7.6146 4.632,-24.6839 10.0891,-51.2073c1.0151,-6.345 2.8554,-15.1655 5.52,-26.4597c0.8887,-2.4118 1.9038,-3.6169 3.0461,-3.6169c2.7918,0 6.1551,0.5708 10.0891,1.7131c4.9492,1.523 7.4238,3.2997 7.4238,5.3299c0,0.7615 -0.2536,2.1574 -0.7615,4.1884c-0.5072,2.411 -0.8244,3.8705 -0.9515,4.3777c-1.7767,11.4222 -5.14,28.7443 -10.0892,51.9687c-2.7918,13.1981 -4.1876,24.0488 -4.1876,32.5513c0,11.4214 2.7917,17.1321 8.3753,17.1321c6.0915,0 11.0414,-3.934 14.8483,-11.8022c2.6654,-5.7107 5.0128,-14.7211 7.043,-27.0313c1.3967,-9.5176 2.729,-19.0359 3.9977,-28.5536c1.2694,-9.1375 3.1733,-22.78 5.7107,-40.9273c1.1423,-7.7417 3.1733,-11.6122 6.0915,-11.6122c3.0461,0 6.4722,0.4444 10.2799,1.3331c5.3299,1.1415 7.8045,2.7282 7.4238,4.7584zm29.5058,104.5075c2.919,0.3808 7.2966,0.8887 13.1345,1.5231c8.1218,0.8887 14.404,1.3323 18.846,1.3323c2.2838,0 3.8705,0.8887 4.7584,2.6653c0.8887,1.7767 1.3331,3.8705 1.3331,6.2815c0,1.7774 -0.3172,4.1249 -0.9523,7.0438c-0.7615,3.5533 -1.7131,5.33 -2.8554,5.33c-0.2535,0 -0.6979,-0.0636 -1.3323,-0.1901c-0.5079,0 -0.9515,0 -1.3323,0c-1.1423,0 -2.8553,0.095 -5.1399,0.2851c-2.2846,0.1907 -3.9977,0.2857 -5.1399,0.2857c-2.6647,0 -6.6623,-0.1586 -11.9923,-0.4758c-5.3299,-0.3171 -9.3276,-0.4757 -11.9929,-0.4757c-1.7767,0 -4.4099,0.095 -7.8996,0.285c-3.4904,0.1907 -6.0286,0.2858 -7.6145,0.2858c-1.5867,0 -3.1411,0.3807 -4.6642,1.1422c-1.523,0.7616 -2.3474,1.1423 -2.4746,1.1423c-1.3959,0 -2.7918,-2.5381 -4.1876,-7.6145c-1.1423,-4.442 -1.7131,-7.7417 -1.7131,-9.8991c0,-2.6646 10.7549,-18.1159 32.2655,-46.3523c21.5105,-28.2364 32.2662,-43.8777 32.2662,-46.9238c0,-0.5072 -0.6979,-0.7615 -2.0938,-0.7615c-4.6956,0 -8.9469,-0.0636 -12.7545,-0.19c-1.0151,0 -2.9818,-0.1272 -5.9007,-0.3808c-2.4118,-0.1272 -4.3785,-0.1908 -5.9015,-0.1908l-2.0938,0c-0.508,0 -1.2059,0.1272 -2.0939,0.3808c-0.8887,0.2543 -1.5866,0.3808 -2.0938,0.3808c-2.1574,0 -3.2361,-4.9492 -3.2361,-14.8476c0,-5.0764 5.8371,-7.6145 17.5129,-7.6145l11.0407,0c10.9142,0 18.5288,0.2535 22.8428,0.7615c1.0159,0.1264 1.8403,0.19 2.4754,0.19c0.8879,0 2.1252,-0.3486 3.7119,-1.0466c1.5859,-0.6986 2.4424,-1.0472 2.5696,-1.0472c1.523,0 3.3311,1.8402 5.4257,5.5207c2.0938,3.6797 3.1404,6.345 3.1404,7.9945c0,4.8228 -8.2489,17.1958 -24.7467,37.1204c-3.1726,3.8069 -7.551,9.5813 -13.1345,17.323c-18.1481,25.0003 -27.4757,38.5791 -27.9829,40.7365zm140.1049,23.7952c0,2.5382 -1.5866,3.8069 -4.7592,3.8069c-0.3807,0 -0.9515,-0.1264 -1.713,-0.38c-0.7616,-0.2544 -1.3324,-0.3808 -1.7131,-0.3808c-0.6344,0 -1.4595,0.2214 -2.4746,0.6658c-1.0151,0.4443 -1.8402,0.6665 -2.4746,0.6665c-2.9189,0 -4.9499,-2.0624 -6.0915,-6.1551c-1.1423,-4.0926 -2.221,-13.0395 -3.2361,-26.8091c-0.1272,-1.523 -0.3179,-2.7282 -0.5715,-3.5847c-0.3808,-1.6502 -1.0787,-2.4746 -2.0939,-2.4746l-3.8069,0c-14.0867,-0.1272 -21.7327,0.6344 -22.9386,2.2838c-1.2059,1.6503 -2.7603,5.2036 -4.6642,10.66c-2.411,6.5994 -3.8704,10.407 -4.3776,11.4221c-1.3959,2.919 -2.4118,5.52 -3.0462,7.8046c-1.0151,3.2997 -1.713,5.4571 -2.0938,6.4722c-0.8887,2.5382 -1.9674,4.4735 -3.2361,5.8058c-1.2695,1.333 -2.9825,1.9988 -5.14,1.9988c-7.3602,0 -11.0406,-1.9038 -11.0406,-5.7107c0,-3.9341 4.9492,-19.2896 14.8483,-46.0673c9.6448,-25.889 15.9899,-41.5617 19.036,-47.0188c2.2838,-5.8371 5.3299,-13.6424 9.1368,-23.4144c6.853,-17.5129 11.485,-26.269 13.8968,-26.269c4.6949,0 9.7076,0.5708 15.0383,1.7131c7.6138,1.6494 11.4215,3.9976 11.4215,7.043c0,0.6343 0,1.6502 0,3.0461c0,1.3959 0,2.411 0,3.0454c0,5.8379 0.1586,14.5311 0.4757,26.0797c0.3172,11.5479 0.4758,20.2411 0.4758,26.079c0,1.5231 -0.095,3.8705 -0.2858,7.043c-0.19,3.1733 -0.285,5.5207 -0.285,7.0438c0,3.1725 0.19,7.8046 0.5708,13.896c0.3808,5.4572 0.5715,17.6401 0.5715,36.5489c0,0.508 0.095,1.3331 0.285,2.4746c0.1908,1.1423 0.2858,2.031 0.2858,2.6654zm-21.7013,-61.1056c0,-3.1725 -0.1586,-7.8046 -0.4758,-13.896c-0.3172,-6.0915 -0.4758,-10.6599 -0.4758,-13.7061c0,-3.8069 -0.2536,-7.2337 -0.7615,-10.2791c-0.1264,-0.6351 -0.4443,-1.2695 -0.9515,-1.9038c0,0 0,0.0636 0,0.19c0,0.3807 -0.8251,2.4753 -2.4746,6.2822c-11.295,25.2547 -16.9422,38.4527 -16.9422,39.595c0,0.7616 1.7767,1.1423 5.33,1.1423c0.6343,0 1.523,0 2.6653,0c1.2687,0.1265 2.2203,0.19 2.8554,0.19c4.0605,0 6.7258,-0.3171 7.9945,-0.9515c2.1575,-1.0159 3.2362,-3.2361 3.2362,-6.663z" fill-rule="evenodd" fill="#ffffff"/>
   <g id="Layer1008">
    <g id="Layer1009">
     <path id="path60" d="m899.53021,222.57864c45.1035,1.2669 16.6638,-32.4184 11.9123,-37.458c-0.017,4.4878 10.1422,31.4727 -16.1074,32.1322l4.1951,5.3258z" fill-rule="evenodd" fill="#ffffff"/>
     <path id="path62" d="m897.43501,219.91864c34.9508,0.2663 16.7213,-29.199 14.0075,-34.798" fill-rule="evenodd" fill="#ffffff"/>
    </g>
    <g id="Layer1010">
     <path id="path65" d="m844.13771,283.33204c-0.3533,-0.5131 27.6785,-11.0624 32.04,-14.5151c11.1994,-8.8655 8.8857,-22.8572 -30.2119,-26.1366c-26.6419,-2.2348 -41.9247,-0.7287 -64.4597,0.2838c7.9506,-6.1796 5.2224,-6.507 20.5893,-8.9861c65.7475,-10.607 128.4857,19.8563 100.0781,39.7618c-6.2013,4.3451 -43.8956,15.5042 -58.0358,9.5922z" fill-rule="evenodd" fill="#ffffff"/>
    </g>
    <path id="path67" d="m844.13811,283.33174c0.1709,-0.0169 0.3423,-0.0339 0.5116,-0.0509c79.5812,-7.991 55.4766,-43.8196 -4.3235,-45.9424c-24.2172,-0.8598 -43.7338,0.0475 -58.8201,5.6257" fill="none"/>
    <path id="path69" d="m882.29821,217.45694l-61.9524,5.4179l60.3732,7.4001l1.5792,-12.818z" fill-rule="evenodd" fill="#ffffff"/>
    <path id="path71" d="m872.61061,222.77614l-8.1634,14.6601l22.9887,15.7064l8.1634,-14.6601l-22.9887,-15.7064z" fill-rule="evenodd" fill="#ffffff"/>
    <path id="path73" d="m894.23851,217.48034l27.0602,-0.4837l-27.1439,22.638l-27.0603,0.4837l27.144,-22.638z" fill-rule="evenodd" fill="#ffffff"/>
    <path id="path75" d="m894.47081,238.49094l13.8748,1.5643l0.5681,4.8047l-14.936,-1.684l0.4931,-4.685z" fill-rule="evenodd" fill="#ffffff"/>
    <path id="path77" d="m893.31631,240.10014l19.7811,8.2944l0.5744,4.8353l-21.6298,-9.0699l1.2743,-4.0598z" fill-rule="evenodd" fill="#ffffff"/>
    <g id="Layer1011">
     <path id="path80" d="m889.02931,216.33864l-6.1724,-1.0562l-5.4949,-3.003l-4.222,-4.6244l-2.4918,-5.7446l-0.4914,-6.2425l1.5619,-6.0644l3.4467,-5.2281l4.9573,-3.826l5.931,-2.0087l6.2619,0.0261l5.9141,2.0574l4.9258,3.8663l3.4033,5.2561l1.5123,6.0772l-0.5426,6.2381l-2.539,5.7239l-4.2604,4.5896l-5.5193,2.9581l-6.1805,1.0051z" fill-rule="evenodd" fill-opacity="0" fill="#aa1113"/>
     <g id="Layer1012">
      <g id="Layer1013">
       <path id="path84" d="m900.50531,204.45994l-4.0312,4.3431l-5.2231,2.799l-5.8487,0.9512l-5.8408,-0.9994l-5.1998,-2.8416l-3.9955,-4.3762l-2.358,-5.4364l-0.4651,-5.9073l1.4783,-5.7385l3.2614,-4.9474l4.6912,-3.6203l5.6125,-1.901l5.9257,0.0244l5.5966,1.9469l4.6613,3.659l3.2204,4.974l1.4311,5.7505l-0.5136,5.9033l-2.4027,5.4167z" fill-rule="evenodd" fill="#ffffff"/>
       <path id="path86" d="m885.39811,213.57474l-6.1723,-1.0562l-5.4948,-3.0029l-4.2223,-4.6245l-2.4917,-5.7448l-0.4915,-6.2426l1.5622,-6.0641l3.4465,-5.2281l4.9573,-3.8259l5.931,-2.0087l6.2619,0.0258l5.9142,2.0574l4.9257,3.8666l3.4034,5.2561l1.5122,6.0769l-0.5425,6.2384l-2.5391,5.7239l-4.2604,4.5895l-5.5193,2.9579l-6.1805,1.0053zm-5.501,-2.9857l0,0l5.5093,0.9426l5.5169,-0.897l4.9266,-2.6401l3.8028,-4.0966l2.2662,-5.1096l0.4844,-5.5682l-1.3497,-5.4241l-3.0379,-4.6919l-4.3969,-3.4513l-5.279,-1.8365l-5.5893,-0.0229l-5.294,1.793l-4.4249,3.4149l-3.0765,4.6668l-1.3944,5.4128l0.4387,5.5719l2.2242,5.128l3.7687,4.1281l4.9048,2.6801z" fill-rule="evenodd" fill="#000000"/>
      </g>
      <g id="Layer1014">
       <path id="path89" d="m895.62061,194.66894c0,5.5993 -4.5391,10.1386 -10.1381,10.1386c-5.5992,0 -10.1382,-4.5393 -10.1382,-10.1386c0,-5.599 4.539,-10.1381 10.1382,-10.1381c5.599,0 10.1381,4.5391 10.1381,10.1381z" fill-rule="evenodd" fill="#e2181a"/>
      </g>
     </g>
    </g>
   </g>
   <g id="Layer1015">
    <path id="path92" d="m409.13671,376.91454c-0.09,-0.542 1.5759,-1.2789 3.702,-1.6379l207.7157,-35.0733c2.1262,-0.3591 4.1544,1.0877 4.5073,3.2147l0.4186,2.5205c0.3531,2.127 -1.1078,4.0939 -3.2459,4.3712l-209.0466,27.0867c-2.1382,0.2772 -3.9611,0.0604 -4.0511,-0.4819z" fill-rule="evenodd" fill="#ffffff"/>
    <path id="path94" d="m411.10841,384.74094c0.1733,0.5217 1.9908,0.3965 4.0389,-0.278l200.0851,-65.8949c2.0477,-0.6743 3.1668,-2.9004 2.4863,-4.9463l-0.8057,-2.4242c-0.6803,-2.0459 -2.89,-3.104 -4.9106,-2.3516l-197.5357,73.5785c-2.0206,0.7525 -3.5316,1.7952 -3.3583,2.3165z" fill-rule="evenodd" fill="#ffffff"/>
    <path id="path96" d="m610.61761,309.31344l0.8274,-0.282l3.3012,9.7046l-0.8274,0.2813l-3.3012,-9.7039z" fill-rule="evenodd" fill="#ffffff"/>
    <path id="path98" d="m608.40111,310.14454l0.8274,-0.282l3.3019,9.7046l-0.8274,0.2813l-3.3019,-9.7039z" fill-rule="evenodd" fill="#ffffff"/>
    <path id="path100" d="m618.84931,340.45084l0.8663,-0.1145l1.3375,10.1258l-0.8663,0.1152l-1.3375,-10.1265z" fill-rule="evenodd" fill="#ffffff"/>
    <path id="path102" d="m616.45851,340.85704l0.8655,-0.122l1.4415,10.0323l-0.8655,0.1212l-1.4415,-10.0315z" fill-rule="evenodd" fill="#ffffff"/>
   </g>
  </g>
  <image x="413.54717" y="276.92506" width="48" height="48" id="svg_1" xlink:href="images/logo.png"/>
 </g>
</svg>
